{"title":"Lil Wayne - Im Not A Human Being [KingPinVideos]","uid":5854438,"size":91377294,"categoryP":"video","categoryS":"music_videos","magnet":"?xt=urn:btih:3fc648e1a2a810d4f6bfa8cef38b8d7bd3a4e62c&amp;dn=Lil+Wayne+-+Im+Not+A+Human+Being+%5BKingPinVideos%5D&amp;tr=udp%3A%2F%2Ftracker.openbittorrent.com%3A80&amp;tr=udp%3A%2F%2Fopen.demonii.com%3A1337&amp;tr=udp%3A%2F%2Ftracker.coppersurfer.tk%3A6969&amp;tr=udp%3A%2F%2Fexodus.desync.com%3A6969","seeders":0,"leechers":0,"uploader":"KingPinMan","files":5,"time":1285543202,"description":"[img]http://img411.imageshack.us/img411/4899/lilwaynehuman.png[/img]\n\n[img]http://img830.imageshack.us/img830/4747/lilwaynehuman2.png[/img]\n\n[code]General\nComplete name                    : Lil Wayne - Im Not A Human Being [KingPinVideos].mpg\nFormat                           : MPEG-PS\nFile size                        : 87.1 MiB\nDuration                         : 4mn 15s\nOverall bit rate                 : 2 856 Kbps\nWriting library                  : encoded by TMPGEnc 4.0 XPress Version. 4.7.4.299\n\nVideo\nID                               : 224 (0xE0)\nFormat                           : MPEG Video\nFormat version                   : Version 1\nFormat settings, BVOP            : Yes\nFormat settings, Matrix          : Default\nDuration                         : 4mn 15s\nBit rate mode                    : Constant\nBit rate                         : 2 615 Kbps\nNominal bit rate                 : 2 700 Kbps\nWidth                            : 384 pixels\nHeight                           : 208 pixels\nDisplay aspect ratio             : 16:9\nFrame rate                       : 29.970 fps\nResolution                       : 8 bits\nScan type                        : Progressive\nBits/(Pixel*Frame)               : 1.092\nStream size                      : 79.8 MiB (92%)\nWriting library                  : TMPGEnc XPress 4.7.4.299\n\nAudio\nID                               : 192 (0xC0)\nFormat                           : MPEG Audio\nFormat version                   : Version 1\nFormat profile                   : Layer 2\nDuration                         : 4mn 15s\nBit rate mode                    : Constant\nBit rate                         : 128 Kbps\nChannel(s)                       : 2 channels\nSampling rate                    : 48.0 KHz\nStream size                      : 3.90 MiB (4%)[/code]","torrent":{"xt":"urn:btih:3fc648e1a2a810d4f6bfa8cef38b8d7bd3a4e62c","amp;dn":"Lil+Wayne+-+Im+Not+A+Human+Being+%5BKingPinVideos%5D","amp;tr":["udp%3A%2F%2Ftracker.openbittorrent.com%3A80","udp%3A%2F%2Fopen.demonii.com%3A1337","udp%3A%2F%2Ftracker.coppersurfer.tk%3A6969","udp%3A%2F%2Fexodus.desync.com%3A6969"],"infoHash":"3fc648e1a2a810d4f6bfa8cef38b8d7bd3a4e62c","infoHashBuffer":{"type":"Buffer","data":[63,198,72,225,162,168,16,212,246,191,168,206,243,139,141,123,211,164,230,44]},"announce":[],"urlList":[]}}